<svg xmlns="http://www.w3.org/2000/svg" width="65" height="65" viewBox="0 0 52.71 52.706"><defs><style>.a{fill:#fff;}</style></defs><g transform="translate(-1 -1.018)"><g transform="translate(1 1.018)"><path class="a" d="M52.327,41.679,41.658,34.564a3.114,3.114,0,0,0-4.17.677l-3.108,4a1.328,1.328,0,0,1-1.7.358l-.591-.326c-1.96-1.068-4.4-2.4-9.311-7.312s-6.245-7.355-7.313-9.311l-.324-.591a1.33,1.33,0,0,1,.351-1.709l3.993-3.107a3.116,3.116,0,0,0,.678-4.17L13.046,2.4a3.1,3.1,0,0,0-4.176-.94L4.409,4.141A6.293,6.293,0,0,0,1.54,7.865c-1.606,5.853-.4,15.956,14.483,30.839,11.838,11.837,20.65,15.02,26.708,15.02a15.561,15.561,0,0,0,4.128-.539,6.287,6.287,0,0,0,3.724-2.87l2.683-4.459A3.1,3.1,0,0,0,52.327,41.679Zm-.574,3.276-2.676,4.461A4.54,4.54,0,0,1,46.4,51.493c-5.4,1.484-14.844.255-29.131-14.032S1.751,13.734,3.234,8.33A4.547,4.547,0,0,1,5.313,5.647L9.775,2.971a1.344,1.344,0,0,1,1.812.408l3.865,5.8L18.7,14.046a1.352,1.352,0,0,1-.293,1.809l-3.994,3.107a3.074,3.074,0,0,0-.814,3.946l.317.576c1.123,2.059,2.518,4.62,7.614,9.715s7.656,6.49,9.714,7.613l.577.318a3.074,3.074,0,0,0,3.946-.814l3.107-3.994a1.353,1.353,0,0,1,1.809-.293l10.668,7.115A1.343,1.343,0,0,1,51.753,44.955Z" transform="translate(-1 -1.018)"/><path class="a" d="M283.506,71.081a14.949,14.949,0,0,1,14.932,14.932.878.878,0,1,0,1.757,0,16.707,16.707,0,0,0-16.689-16.689.878.878,0,0,0,0,1.757Z" transform="translate(-253.639 -62.293)"/><path class="a" d="M283.506,122.281a9.674,9.674,0,0,1,9.662,9.662.878.878,0,1,0,1.757,0,11.432,11.432,0,0,0-11.419-11.419.878.878,0,1,0,0,1.757Z" transform="translate(-253.639 -108.223)"/><path class="a" d="M283.506,173.481a4.4,4.4,0,0,1,4.392,4.392.878.878,0,0,0,1.757,0,6.156,6.156,0,0,0-6.149-6.149.878.878,0,1,0,0,1.757Z" transform="translate(-253.639 -154.153)"/></g></g></svg>