<svg xmlns="http://www.w3.org/2000/svg" width="30.333" height="30.333" viewBox="0 0 49.333 49.333"><defs><style>.a{fill:#be1d2c;}</style></defs><path class="a" d="M7.227,49.333H23.318V31.8H17.536V26.016h5.781V18.789a7.235,7.235,0,0,1,7.227-7.227h7.227v5.781H31.99A2.894,2.894,0,0,0,29.1,20.234v5.781H37.51L36.547,31.8H29.1V49.333H42.107a7.235,7.235,0,0,0,7.227-7.227V7.227A7.235,7.235,0,0,0,42.107,0H7.227A7.235,7.235,0,0,0,0,7.227v34.88A7.235,7.235,0,0,0,7.227,49.333ZM2.891,7.227A4.341,4.341,0,0,1,7.227,2.891h34.88a4.341,4.341,0,0,1,4.336,4.336v34.88a4.341,4.341,0,0,1-4.336,4.336H31.99V34.688H39l1.927-11.563H31.99V20.234h8.672V8.672H30.544A10.129,10.129,0,0,0,20.427,18.789v4.336H14.646V34.688h5.781V46.443H7.227a4.341,4.341,0,0,1-4.336-4.336Zm0,0"/></svg>