<svg xmlns="http://www.w3.org/2000/svg" width="65" height="65.004" viewBox="0 0 65 65.004"><defs><style>.a{fill:#fff;}</style></defs><g transform="translate(-0.015)"><g transform="translate(0.015)"><g transform="translate(0)"><path class="a" d="M119.848,143.666a23.833,23.833,0,1,0-23.833-23.833A23.833,23.833,0,0,0,119.848,143.666ZM101.432,118.75H98.237a21.657,21.657,0,0,1,20.528-20.528v3.195a1.083,1.083,0,0,0,2.167,0V98.222a21.657,21.657,0,0,1,20.528,20.528h-4.278a1.083,1.083,0,0,0,0,2.167h4.278a21.657,21.657,0,0,1-20.528,20.528V138.25a1.083,1.083,0,1,0-2.167,0v3.195a21.657,21.657,0,0,1-20.528-20.528h3.195a1.083,1.083,0,1,0,0-2.167Z" transform="translate(-83.015 -83)"/><path class="a" d="M95.821,22.768q-.484-.839-1.026-1.644L97.47,18.45a1.083,1.083,0,0,0,0-1.532L91.349,10.8a1.083,1.083,0,0,0-1.532,0l-2.679,2.67A28,28,0,0,0,72.514,8.694V2.167H80.1A1.083,1.083,0,0,0,80.1,0H62.764a1.083,1.083,0,0,0,0,2.167h7.583V8.7A28.134,28.134,0,0,0,47.056,22.75H41.1a1.083,1.083,0,0,0,0,2.167h6.5c.028,0,.052-.014.08-.016a1.072,1.072,0,0,0,.946-.542,26,26,0,1,1,0,24.96,1.073,1.073,0,0,0-.944-.547c-.028,0-.053-.016-.082-.016H41.1a1.083,1.083,0,0,0,0,2.167h5.958A28.154,28.154,0,0,0,95.821,22.768Zm-6.913-8L90.583,13.1l4.589,4.589L93.5,19.361A28.464,28.464,0,0,0,88.909,14.77Z" transform="translate(-34.598)"/><path class="a" d="M10.848,265.083A1.083,1.083,0,0,0,9.765,264H1.1a1.083,1.083,0,1,0,0,2.167H9.765A1.083,1.083,0,0,0,10.848,265.083Z" transform="translate(-0.015 -228.25)"/><path class="a" d="M17.1,218.167h7.583a1.083,1.083,0,0,0,0-2.167H17.1a1.083,1.083,0,0,0,0,2.167Z" transform="translate(-13.848 -186.75)"/><path class="a" d="M25.765,313.083A1.083,1.083,0,0,0,24.682,312H17.1a1.083,1.083,0,1,0,0,2.167h7.583A1.083,1.083,0,0,0,25.765,313.083Z" transform="translate(-13.848 -269.75)"/><path class="a" d="M202.373,217.793a1.083,1.083,0,0,0,1.532,0l15.058-15.058a1.083,1.083,0,0,0-1.532-1.532l-14.292,14.292-6.446-6.446a1.083,1.083,0,0,0-1.532,1.532Z" transform="translate(-168.473 -173.694)"/></g></g></g></svg>